<svg width="20" height="20" viewBox="0 0 20 20" fill="none" xmlns="http://www.w3.org/2000/svg">
<g clip-path="url(#clip0_231_1209)">
<path d="M0.774902 18.3334C0.774902 18.7936 1.14762 19.1667 1.60824 19.1667C2.06885 19.1667 2.44157 18.7936 2.44157 18.3334C2.44157 15.3927 4.13448 12.7893 6.77328 11.5582C7.68652 12.1517 8.77295 12.5001 9.94075 12.5001C11.113 12.5001 12.2036 12.1493 13.119 11.5517C13.9067 11.9235 14.6367 12.4239 15.2443 13.0311C16.6611 14.4483 17.4416 16.3314 17.4416 18.3334C17.4416 18.7936 17.8143 19.1667 18.2749 19.1667C18.7355 19.1667 19.1082 18.7936 19.1082 18.3334C19.1082 15.8863 18.1545 13.5849 16.4227 11.8527C15.8432 11.2729 15.1697 10.7758 14.4472 10.3659C15.2757 9.35849 15.7741 8.06983 15.7741 6.66674C15.7741 3.45018 13.1569 0.833405 9.94075 0.833405C6.72461 0.833405 4.10742 3.45018 4.10742 6.66674C4.10742 8.06643 4.60379 9.35193 5.42863 10.3583C2.56796 11.9689 0.774902 14.9782 0.774902 18.3334ZM9.94075 2.50007C12.2381 2.50007 14.1074 4.36937 14.1074 6.66674C14.1074 8.9641 12.2381 10.8334 9.94075 10.8334C7.64339 10.8334 5.77409 8.9641 5.77409 6.66674C5.77409 4.36937 7.64339 2.50007 9.94075 2.50007Z" fill="#539DF3"/>
</g>
<defs>
<clipPath id="clip0_231_1209">
<rect width="20" height="20" fill="white"/>
</clipPath>
</defs>
</svg>
