<svg width="20" height="20" viewBox="0 0 20 20" fill="none" xmlns="http://www.w3.org/2000/svg">
<path d="M9.86216 10.7422C8.47018 10.7422 7.14474 10.0934 6.12964 8.91563C5.19781 7.83438 4.66317 6.44258 4.66317 5.09766C4.66317 3.74567 5.21092 2.44906 6.18592 1.49307C7.16092 0.537073 8.4833 0 9.86216 0C11.241 0 12.5634 0.537073 13.5384 1.49307C14.5134 2.44906 15.0611 3.74567 15.0611 5.09766C15.0611 6.44258 14.5265 7.83438 13.5947 8.91563C12.5796 10.0934 11.2541 10.7422 9.86216 10.7422ZM9.86216 1.95312C9.01189 1.95406 8.19672 2.28565 7.59549 2.87516C6.99426 3.46468 6.65607 4.26396 6.65512 5.09766C6.65512 5.97539 7.02722 6.93125 7.65109 7.65469C8.28135 8.38633 9.06657 8.7875 9.86216 8.7875C10.6577 8.7875 11.443 8.38477 12.0732 7.65469C12.6971 6.93125 13.0692 5.975 13.0692 5.09766C13.0682 4.26396 12.7301 3.46468 12.1288 2.87516C11.5276 2.28565 10.7124 1.95406 9.86216 1.95312Z" fill="white"/>
<path d="M18.5072 20C18.2431 20 17.9897 19.8971 17.803 19.714C17.6162 19.5308 17.5112 19.2824 17.5112 19.0234V16.784C17.5112 14.8645 16.2938 13.6719 14.3341 13.6719H5.66911C3.70943 13.6719 2.49195 14.8645 2.49195 16.784V19.0234C2.49195 19.2824 2.38702 19.5308 2.20023 19.714C2.01345 19.8971 1.76012 20 1.49597 20C1.23183 20 0.978495 19.8971 0.791714 19.714C0.604933 19.5308 0.5 19.2824 0.5 19.0234V16.784C0.5 15.3102 0.996393 14.0449 1.9342 13.125C2.87201 12.2051 4.16518 11.7188 5.66751 11.7188H14.3325C15.836 11.7188 17.1268 12.2051 18.0658 13.125C19.0048 14.0449 19.5 15.3102 19.5 16.784V19.0234C19.5 19.2819 19.3955 19.5298 19.2094 19.7129C19.0233 19.8959 18.7708 19.9992 18.5072 20Z" fill="white"/>
</svg>
