<svg width="10" height="16" viewBox="0 0 10 16" fill="none" xmlns="http://www.w3.org/2000/svg">
<path d="M1.53429 0.970182C1.32648 0.965612 1.12242 1.02585 0.950462 1.14262C0.778506 1.25939 0.647204 1.42691 0.574811 1.62175C0.502418 1.81659 0.492531 2.02911 0.546524 2.22983C0.600518 2.43055 0.715708 2.60938 0.876081 2.7416L6.99523 7.98378L0.876081 13.2241C0.765143 13.3057 0.672235 13.4092 0.603176 13.5283C0.534116 13.6474 0.490393 13.7795 0.474743 13.9163C0.459094 14.0531 0.471856 14.1916 0.51223 14.3232C0.552605 14.4548 0.619721 14.5767 0.709377 14.6812C0.799033 14.7857 0.909297 14.8705 1.03326 14.9304C1.15723 14.9903 1.29223 15.0239 1.42981 15.0292C1.56738 15.0345 1.70457 15.0115 1.83278 14.9613C1.961 14.9111 2.07747 14.835 2.17491 14.7378L9.18078 8.74354C9.2908 8.64965 9.37915 8.53312 9.43972 8.40178C9.5003 8.27045 9.53167 8.1275 9.53167 7.98286C9.53167 7.83823 9.5003 7.69528 9.43972 7.56394C9.37915 7.4326 9.2908 7.31595 9.18078 7.22207L2.17491 1.22209C1.99793 1.06489 1.77093 0.975521 1.53429 0.969952V0.970182Z" fill="#539DF3"/>
</svg>
