<svg width="188" height="210" viewBox="0 0 188 210" fill="none" xmlns="http://www.w3.org/2000/svg">
<path d="M38.3124 193.111H149.685C152.746 193.119 155.697 191.962 157.946 189.873C167.328 181.134 174.834 170.556 180.002 158.791C185.169 147.026 187.89 134.321 187.996 121.458C188.476 69.1577 146.216 26.1237 94.2268 26.0003C42.2079 25.8768 6.1744e-05 68.2629 6.1744e-05 120.567C-0.0147895 133.585 2.64965 146.465 7.82561 158.396C13.0016 170.327 20.577 181.051 30.0748 189.892C32.3191 191.971 35.2613 193.121 38.3124 193.111Z" fill="url(#paint0_linear_678_2761)"/>
<path d="M110.317 192.704H26.407C25.3876 192.704 24.3781 192.503 23.4362 192.113C22.4944 191.723 21.6386 191.151 20.9178 190.43C20.1969 189.71 19.6251 188.854 19.235 187.912C18.8448 186.97 18.644 185.961 18.644 184.941V51.0139C18.644 48.9551 19.4619 46.9805 20.9178 45.5247C22.3736 44.0689 24.3481 43.251 26.407 43.251H83.9826L118.08 77.3481V184.941C118.08 187 117.262 188.975 115.806 190.43C114.35 191.886 112.376 192.704 110.317 192.704Z" fill="#E5E9F1"/>
<g filter="url(#filter0_d_678_2761)">
<path d="M126.304 175.86H42.3938C41.3744 175.86 40.3649 175.66 39.4231 175.27C38.4812 174.879 37.6254 174.308 36.9046 173.587C36.1837 172.866 35.6119 172.01 35.2218 171.068C34.8317 170.126 34.6309 169.117 34.6309 168.097V34.1702C34.6309 33.1507 34.8317 32.1413 35.2218 31.1994C35.6119 30.2576 36.1837 29.4018 36.9046 28.6809C37.6254 27.9601 38.4812 27.3883 39.4231 26.9981C40.3649 26.608 41.3744 26.4072 42.3938 26.4072H99.9694L134.066 60.5043V168.098C134.066 169.117 133.866 170.126 133.476 171.068C133.085 172.01 132.514 172.866 131.793 173.587C131.072 174.308 130.216 174.879 129.274 175.27C128.332 175.66 127.323 175.86 126.304 175.86Z" fill="white"/>
</g>
<path d="M134.066 60.5043H107.732C105.673 60.5043 103.699 59.6864 102.243 58.2306C100.787 56.7748 99.9692 54.8002 99.9692 52.7414V26.4072L134.066 60.5043Z" fill="#AED1FB"/>
<path d="M70.9497 101.07C74.3748 101.07 77.1514 98.2937 77.1514 94.8687C77.1514 91.4436 74.3748 88.667 70.9497 88.667C67.5246 88.667 64.748 91.4436 64.748 94.8687C64.748 98.2937 67.5246 101.07 70.9497 101.07Z" fill="#AED1FB"/>
<path d="M97.3496 101.07C100.775 101.07 103.551 98.2937 103.551 94.8687C103.551 91.4436 100.775 88.667 97.3496 88.667C93.9245 88.667 91.1479 91.4436 91.1479 94.8687C91.1479 98.2937 93.9245 101.07 97.3496 101.07Z" fill="#AED1FB"/>
<path d="M103.889 124.282C103.375 124.283 102.865 124.182 102.39 123.985C101.915 123.788 101.483 123.5 101.12 123.135C96.6152 118.641 90.5117 116.117 84.1483 116.117C77.785 116.117 71.6815 118.641 67.1767 123.135C66.8131 123.499 66.3813 123.788 65.9061 123.984C65.4309 124.181 64.9215 124.283 64.4071 124.283C63.8928 124.283 63.3834 124.182 62.9081 123.985C62.4329 123.788 62.0011 123.499 61.6374 123.136C61.2736 122.772 60.9851 122.34 60.7883 121.865C60.5915 121.39 60.4902 120.88 60.4902 120.366C60.4903 119.851 60.5917 119.342 60.7886 118.867C60.9855 118.392 61.2741 117.96 61.6379 117.596C67.6127 111.635 75.7082 108.287 84.1483 108.287C92.5884 108.287 100.684 111.635 106.659 117.596C107.207 118.144 107.58 118.842 107.731 119.601C107.882 120.361 107.804 121.149 107.508 121.865C107.211 122.58 106.709 123.192 106.065 123.622C105.421 124.053 104.664 124.282 103.889 124.282L103.889 124.282Z" fill="#AED1FB"/>
<path d="M126.834 137.619L119.637 144.815L146.72 171.898L153.916 164.701L126.834 137.619Z" fill="#D4D9E3"/>
<path d="M44.0781 66.4444C36.1469 74.3756 30.7457 84.4806 28.5575 95.4815C26.3693 106.482 27.4923 117.885 31.7847 128.248C36.077 138.61 43.3459 147.468 52.672 153.699C61.9981 159.931 72.9627 163.257 84.1791 163.257C95.3955 163.257 106.36 159.931 115.686 153.699C125.012 147.468 132.281 138.61 136.574 128.248C140.866 117.885 141.989 106.482 139.801 95.4815C137.613 84.4806 132.211 74.3756 124.28 66.4444C119.014 61.1782 112.762 57.0009 105.882 54.1509C99.0011 51.3009 91.6266 49.834 84.1791 49.834C76.7317 49.834 69.3572 51.3009 62.4766 54.1509C55.5961 57.0009 49.3443 61.1782 44.0781 66.4444ZM116.884 139.25C110.415 145.718 102.174 150.123 93.2022 151.908C84.2304 153.692 74.9308 152.777 66.4795 149.276C58.0282 145.775 50.8047 139.847 45.7226 132.241C40.6404 124.635 37.9279 115.693 37.9279 106.545C37.9279 97.3977 40.6405 88.4555 45.7226 80.8495C50.8048 73.2435 58.0282 67.3154 66.4795 63.8148C74.9309 60.3141 84.2304 59.3982 93.2023 61.1828C102.174 62.9674 110.415 67.3724 116.884 73.8408C125.557 82.5146 130.43 94.2788 130.43 106.545C130.43 118.812 125.557 130.576 116.884 139.25Z" fill="#D4D9E3"/>
<path d="M132.546 150.867L132.546 150.867C128.036 155.377 128.036 162.689 132.546 167.199L149.642 184.296C154.152 188.806 161.464 188.806 165.974 184.295C170.484 179.785 170.484 172.473 165.974 167.963L148.878 150.867C144.368 146.357 137.056 146.357 132.546 150.867Z" fill="#AED1FB"/>
<defs>
<filter id="filter0_d_678_2761" x="4.63086" y="0.407227" width="159.436" height="209.453" filterUnits="userSpaceOnUse" color-interpolation-filters="sRGB">
<feFlood flood-opacity="0" result="BackgroundImageFix"/>
<feColorMatrix in="SourceAlpha" type="matrix" values="0 0 0 0 0 0 0 0 0 0 0 0 0 0 0 0 0 0 127 0" result="hardAlpha"/>
<feOffset dy="4"/>
<feGaussianBlur stdDeviation="15"/>
<feComposite in2="hardAlpha" operator="out"/>
<feColorMatrix type="matrix" values="0 0 0 0 0 0 0 0 0 0 0 0 0 0 0 0 0 0 0.1 0"/>
<feBlend mode="normal" in2="BackgroundImageFix" result="effect1_dropShadow_678_2761"/>
<feBlend mode="normal" in="SourceGraphic" in2="effect1_dropShadow_678_2761" result="shape"/>
</filter>
<linearGradient id="paint0_linear_678_2761" x1="94" y1="26" x2="94" y2="193.111" gradientUnits="userSpaceOnUse">
<stop stop-color="#FBFDFE"/>
<stop offset="1" stop-color="#F0F5FA"/>
</linearGradient>
</defs>
</svg>
