<svg width="21" height="23" viewBox="0 0 21 23" fill="none" xmlns="http://www.w3.org/2000/svg">
<path d="M7.45836 4.19231L8.1199 2.48462C8.23147 2.19548 8.42776 1.94679 8.68306 1.7711C8.93836 1.59541 9.24076 1.50092 9.55067 1.5H10.8122C11.1221 1.50092 11.4245 1.59541 11.6798 1.7711C11.9351 1.94679 12.1314 2.19548 12.243 2.48462L12.9045 4.19231L15.1506 5.48462L16.966 5.20769C17.2683 5.16666 17.576 5.21642 17.85 5.35065C18.1238 5.48488 18.3517 5.69751 18.5045 5.96154L19.1198 7.03846C19.2775 7.30669 19.3503 7.61643 19.3283 7.9268C19.3063 8.23717 19.1908 8.53358 18.9968 8.77692L17.8737 10.2077V12.7923L19.0275 14.2231C19.2215 14.4664 19.3371 14.7628 19.3591 15.0732C19.3811 15.3836 19.3083 15.6933 19.1506 15.9615L18.5352 17.0385C18.3825 17.3025 18.1546 17.5151 17.8808 17.6494C17.6068 17.7835 17.2991 17.8334 16.9968 17.7923L15.1814 17.5154L12.9353 18.8077L12.2737 20.5154C12.1622 20.8045 11.9659 21.0532 11.7106 21.2289C11.4553 21.4046 11.1529 21.4991 10.843 21.5H9.55067C9.24076 21.4991 8.93836 21.4046 8.68306 21.2289C8.42776 21.0532 8.23147 20.8045 8.1199 20.5154L7.45836 18.8077L5.21221 17.5154L3.39683 17.7923C3.09455 17.8334 2.78689 17.7835 2.51295 17.6494C2.23903 17.5151 2.01118 17.3025 1.85836 17.0385L1.24298 15.9615C1.08529 15.6933 1.01264 15.3836 1.03461 15.0732C1.05658 14.7628 1.17215 14.4664 1.36606 14.2231L2.48913 12.7923V10.2077L1.33529 8.77692C1.14138 8.53358 1.02581 8.23717 1.00384 7.9268C0.981872 7.61643 1.05452 7.30669 1.21221 7.03846L1.82759 5.96154C1.98041 5.69751 2.20826 5.48488 2.48218 5.35065C2.75612 5.21642 3.06378 5.16666 3.36606 5.20769L5.18144 5.48462L7.45836 4.19231ZM7.10452 11.5C7.10452 12.1086 7.28498 12.7034 7.62307 13.2094C7.96118 13.7154 8.44172 14.1098 9.00395 14.3427C9.5662 14.5756 10.1849 14.6365 10.7817 14.5178C11.3786 14.3991 11.9268 14.106 12.3572 13.6757C12.7875 13.2454 13.0805 12.6971 13.1992 12.1003C13.318 11.5034 13.257 10.8848 13.0241 10.3225C12.7913 9.76028 12.3969 9.27972 11.8909 8.94163C11.3849 8.60354 10.79 8.42308 10.1814 8.42308C9.3654 8.42308 8.58276 8.74725 8.00573 9.32429C7.4287 9.90132 7.10452 10.684 7.10452 11.5Z" stroke="#1E1E1E" stroke-width="1.6" stroke-linecap="round" stroke-linejoin="round"/>
</svg>
