<svg width="162" height="144" viewBox="0 0 162 144" fill="none" xmlns="http://www.w3.org/2000/svg">
<path d="M33.0138 144H128.984C131.622 144.006 134.164 143.01 136.102 141.209C144.187 133.679 150.655 124.565 155.108 114.426C159.561 104.288 161.905 93.3404 161.997 82.2568C162.41 37.1891 125.995 0.106592 81.1954 0.000231965C36.3706 -0.106188 5.32248e-05 36.418 5.32248e-05 81.4883C-0.0127465 92.7059 2.2832 103.805 6.74334 114.086C11.2035 124.367 17.7312 133.608 25.9155 141.226C27.8494 143.018 30.3847 144.009 33.0138 144Z" fill="url(#paint0_linear_671_2438)"/>
<path d="M64.8942 143.77C69.2214 143.77 72.7293 140.262 72.7293 135.935C72.7293 131.608 69.2214 128.1 64.8942 128.1C60.567 128.1 57.0591 131.608 57.0591 135.935C57.0591 140.262 60.567 143.77 64.8942 143.77Z" fill="#D4D9E3"/>
<path d="M64.8942 143.77C69.2214 143.77 72.7293 140.262 72.7293 135.935C72.7293 131.608 69.2214 128.1 64.8942 128.1C60.567 128.1 57.0591 131.608 57.0591 135.935C57.0591 140.262 60.567 143.77 64.8942 143.77Z" fill="black" fill-opacity="0.05"/>
<path d="M131.286 143.77C135.613 143.77 139.121 140.262 139.121 135.935C139.121 131.608 135.613 128.1 131.286 128.1C126.959 128.1 123.451 131.608 123.451 135.935C123.451 140.262 126.959 143.77 131.286 143.77Z" fill="#D4D9E3"/>
<path d="M131.286 143.77C135.613 143.77 139.121 140.262 139.121 135.935C139.121 131.608 135.613 128.1 131.286 128.1C126.959 128.1 123.451 131.608 123.451 135.935C123.451 140.262 126.959 143.77 131.286 143.77Z" fill="black" fill-opacity="0.05"/>
<path d="M140.14 139.174H64.2246C61.508 139.174 58.8455 138.414 56.5378 136.981C54.2301 135.547 52.3692 133.497 51.1651 131.062C49.9611 128.627 49.4619 125.904 49.7239 123.2C49.9859 120.496 50.9987 117.919 52.6479 115.76L57.9927 108.765L50.551 31.0774C50.4665 30.184 50.1201 29.3353 49.5552 28.638C48.9902 27.9407 48.2319 27.4258 47.3754 27.1579L28.3934 21.1943H11.7529C10.9076 21.1943 10.0968 20.8585 9.49903 20.2607C8.90125 19.663 8.56543 18.8522 8.56543 18.0068C8.56543 17.1615 8.90125 16.3507 9.49903 15.7529C10.0968 15.1552 10.9076 14.8193 11.7529 14.8193H28.8823C29.2063 14.8194 29.5285 14.8688 29.8377 14.9658L49.2861 21.0759C51.3389 21.718 53.1563 22.952 54.5103 24.6232C55.8643 26.2944 56.6946 28.3282 56.897 30.4695L64.458 109.402C64.5346 110.203 64.306 111.002 63.8179 111.641L57.7137 119.631C56.7861 120.845 56.2165 122.294 56.0692 123.815C55.9218 125.336 56.2026 126.867 56.8797 128.237C57.5569 129.606 58.6036 130.759 59.9014 131.565C61.1993 132.372 62.6967 132.799 64.2246 132.799H140.14C140.985 132.799 141.796 133.135 142.394 133.732C142.992 134.33 143.327 135.141 143.327 135.986C143.327 136.832 142.992 137.642 142.394 138.24C141.796 138.838 140.985 139.174 140.14 139.174V139.174Z" fill="#D4D9E3"/>
<path d="M98.4987 22.9678H68.4479C67.1075 22.9678 66.021 24.0543 66.021 25.3946V55.6805C66.021 57.0208 67.1075 58.1074 68.4479 58.1074H98.4987C99.8391 58.1074 100.926 57.0208 100.926 55.6805V25.3946C100.926 24.0543 99.8391 22.9678 98.4987 22.9678Z" fill="#417A93"/>
<path d="M88.6111 21.0918H58.5602C57.2198 21.0918 56.1333 22.1783 56.1333 23.5187V53.8045C56.1333 55.1448 57.2198 56.2314 58.5602 56.2314H88.6111C89.9514 56.2314 91.0379 55.1448 91.0379 53.8045V23.5187C91.0379 22.1783 89.9514 21.0918 88.6111 21.0918Z" fill="#417A93"/>
<path opacity="0.15" d="M88.6111 21.0918H58.5602C57.2198 21.0918 56.1333 22.1783 56.1333 23.5187V53.8045C56.1333 55.1448 57.2198 56.2314 58.5602 56.2314H88.6111C89.9514 56.2314 91.0379 55.1448 91.0379 53.8045V23.5187C91.0379 22.1783 89.9514 21.0918 88.6111 21.0918Z" fill="black"/>
<path d="M118.956 30.375H98.0519C96.7115 30.375 95.625 31.4616 95.625 32.8019V63.0877C95.625 64.4281 96.7115 65.5146 98.0519 65.5146H118.956C120.297 65.5146 121.383 64.4281 121.383 63.0877V32.8019C121.383 31.4616 120.297 30.375 118.956 30.375Z" fill="#417A93"/>
<path opacity="0.15" d="M118.956 30.375H98.0519C96.7115 30.375 95.625 31.4616 95.625 32.8019V63.0877C95.625 64.4281 96.7115 65.5146 98.0519 65.5146H118.956C120.297 65.5146 121.383 64.4281 121.383 63.0877V32.8019C121.383 31.4616 120.297 30.375 118.956 30.375Z" fill="black"/>
<path d="M108.305 28.3467H87.4005C86.0602 28.3467 84.9736 29.4332 84.9736 30.7736V61.0594C84.9736 62.3997 86.0602 63.4863 87.4005 63.4863H108.305C109.645 63.4863 110.732 62.3997 110.732 61.0594V30.7736C110.732 29.4332 109.645 28.3467 108.305 28.3467Z" fill="#417A93"/>
<path d="M123.012 139.175H47.0968C44.3802 139.175 41.7177 138.415 39.41 136.982C37.1024 135.548 35.2414 133.498 34.0373 131.063C32.8333 128.628 32.3341 125.905 32.5961 123.201C32.8581 120.497 33.8709 117.92 35.5201 115.761L40.8648 108.766L33.4232 31.0784C33.3388 30.185 32.9923 29.3363 32.4274 28.639C31.8624 27.9417 31.1041 27.4268 30.2476 27.1589L10.799 21.0489C10.3993 20.9237 10.0282 20.721 9.70685 20.4523C9.38552 20.1836 9.12029 19.8542 8.92633 19.483C8.73237 19.1118 8.61348 18.7059 8.57645 18.2887C8.53942 17.8715 8.58498 17.4511 8.71053 17.0515C8.83607 16.6519 9.03915 16.2809 9.30814 15.9599C9.57713 15.6388 9.90676 15.3739 10.2782 15.1803C10.6496 14.9867 11.0556 14.8682 11.4728 14.8315C11.8901 14.7949 12.3104 14.8409 12.7099 14.9668L32.1583 21.0769C34.2111 21.719 36.0285 22.953 37.3825 24.6242C38.7365 26.2954 39.5669 28.3292 39.7693 30.4706L47.33 109.403C47.4067 110.204 47.178 111.003 46.6899 111.642L40.5859 119.632C39.6584 120.846 39.0887 122.295 38.9414 123.816C38.794 125.337 39.0748 126.868 39.752 128.238C40.4291 129.607 41.4758 130.76 42.7736 131.566C44.0715 132.373 45.5689 132.8 47.0968 132.8H123.012C123.857 132.8 124.668 133.136 125.266 133.733C125.864 134.331 126.2 135.142 126.2 135.987C126.2 136.833 125.864 137.643 125.266 138.241C124.668 138.839 123.857 139.175 123.012 139.175Z" fill="#E5E9F1"/>
<path d="M135.255 100.336L110.161 103.109L52.7642 38.3926H148.661C149.384 38.3926 150.097 38.5566 150.746 38.8724C151.396 39.1881 151.965 39.6473 152.412 40.2153C152.858 40.7832 153.169 41.4451 153.322 42.151C153.475 42.8569 153.466 43.5884 153.295 44.2902L140.847 95.4213C140.532 96.7154 139.826 97.8812 138.826 98.7604C137.825 99.6397 136.578 100.19 135.255 100.336Z" fill="#D4D9E3"/>
<path d="M120.568 101.981L44.9816 110.176C44.4763 110.231 43.965 110.185 43.4776 110.04C42.9902 109.896 42.5362 109.657 42.142 109.336C41.7478 109.015 41.4213 108.619 41.1812 108.171C40.9412 107.723 40.7925 107.231 40.7437 106.725L34.5672 42.6503C34.5153 42.1111 34.5766 41.5671 34.7473 41.0531C34.918 40.5391 35.1943 40.0665 35.5584 39.6656C35.9226 39.2646 36.3665 38.9443 36.8618 38.7251C37.357 38.5058 37.8926 38.3926 38.4342 38.3926H134.388C135.11 38.3926 135.823 38.5566 136.473 38.8724C137.123 39.1881 137.692 39.6473 138.138 40.2153C138.585 40.7832 138.896 41.4451 139.049 42.151C139.202 42.8569 139.193 43.5884 139.022 44.2902L126.173 97.0647C125.858 98.3609 125.15 99.5284 124.147 100.408C123.144 101.288 121.894 101.837 120.568 101.981Z" fill="#E5E9F1"/>
<path d="M45.1906 143.77C49.5178 143.77 53.0257 140.262 53.0257 135.935C53.0257 131.608 49.5178 128.1 45.1906 128.1C40.8634 128.1 37.3555 131.608 37.3555 135.935C37.3555 140.262 40.8634 143.77 45.1906 143.77Z" fill="#D4D9E3"/>
<path d="M45.1908 139.284C47.0407 139.284 48.5403 137.784 48.5403 135.934C48.5403 134.085 47.0407 132.585 45.1908 132.585C43.3409 132.585 41.8413 134.085 41.8413 135.934C41.8413 137.784 43.3409 139.284 45.1908 139.284Z" fill="white"/>
<path d="M111.585 143.77C115.912 143.77 119.42 140.262 119.42 135.935C119.42 131.608 115.912 128.1 111.585 128.1C107.257 128.1 103.75 131.608 103.75 135.935C103.75 140.262 107.257 143.77 111.585 143.77Z" fill="#D4D9E3"/>
<path d="M111.583 139.284C113.433 139.284 114.933 137.784 114.933 135.934C114.933 134.085 113.433 132.585 111.583 132.585C109.733 132.585 108.234 134.085 108.234 135.934C108.234 137.784 109.733 139.284 111.583 139.284Z" fill="white"/>
<defs>
<linearGradient id="paint0_linear_671_2438" x1="81" y1="0" x2="81" y2="144" gradientUnits="userSpaceOnUse">
<stop stop-color="#FBFDFE"/>
<stop offset="1" stop-color="#F0F5FA"/>
</linearGradient>
</defs>
</svg>
