<svg xmlns="http://www.w3.org/2000/svg" data-name="Layer 1" viewBox="0 0 512 512" id="emi-calculator"><path fill="#aeadb3" d="m474.565 503.72-270 .715a30 30 0 0 1-30.065-30v-437a30 30 0 0 1 29.935-30l270-.714a30 30 0 0 1 30.065 30v437a30 30 0 0 1-29.935 30Z"></path><path fill="#8b8893" d="m474.435 6.721-27.94.074A29.996 29.996 0 0 1 474.5 36.721v437a30 30 0 0 1-29.935 30l-242.06.64c.68.045 1.367.076 2.06.074l270-.714a30 30 0 0 0 29.935-30v-437a30 30 0 0 0-30.065-30Z"></path><rect width="240" height="94.189" x="219.5" y="52.5" fill="#52bbe9" rx="15"></rect><rect width="60" height="45" x="219.5" y="236.689" fill="#787681" rx="10"></rect><path fill="#57565c" d="M269.5 236.689h-15a10 10 0 0 1 10 10v25a10 10 0 0 1-10 10h15a10 10 0 0 0 10-10v-25a10 10 0 0 0-10-10Z"></path><rect width="60" height="45" x="309.5" y="236.689" fill="#787681" rx="10"></rect><path fill="#57565c" d="M359.5 236.689h-15a10 10 0 0 1 10 10v25a10 10 0 0 1-10 10h15a10 10 0 0 0 10-10v-25a10 10 0 0 0-10-10Z"></path><rect width="60" height="45" x="399.5" y="236.689" fill="#787681" rx="10"></rect><path fill="#57565c" d="M449.5 236.689h-15a10 10 0 0 1 10 10v25a10 10 0 0 1-10 10h15a10 10 0 0 0 10-10v-25a10 10 0 0 0-10-10Z"></path><rect width="60" height="45" x="309.5" y="326.689" fill="#787681" rx="10"></rect><path fill="#57565c" d="M359.5 326.689h-15a10 10 0 0 1 10 10v25a10 10 0 0 1-10 10h15a10 10 0 0 0 10-10v-25a10 10 0 0 0-10-10Z"></path><rect width="60" height="45" x="309.5" y="414.5" fill="#787681" rx="10"></rect><path fill="#57565c" d="M359.5 414.5h-15a10 10 0 0 1 10 10v25a10 10 0 0 1-10 10h15a10 10 0 0 0 10-10v-25a10 10 0 0 0-10-10Z"></path><rect width="60" height="132.811" x="399.5" y="326.689" fill="#787681" rx="10"></rect><path fill="#57565c" d="M449.5 326.689h-15a10 10 0 0 1 10 10V449.5a10 10 0 0 1-10 10h15a10 10 0 0 0 10-10V336.689a10 10 0 0 0-10-10Z"></path><rect width="301.644" height="178.052" x="6.736" y="326.41" fill="#e4222e" rx="30"></rect><path fill="#c0232c" d="M278.38 326.41h-30a30 30 0 0 1 30 30v118.052a30 30 0 0 1-30 30h30a30 30 0 0 0 30-30V356.41a30 30 0 0 0-30-30Z"></path><path fill="#3c3b41" d="M359.5 229.188h-40a17.52 17.52 0 0 0-17.5 17.5v25a17.52 17.52 0 0 0 17.5 17.5h40a17.52 17.52 0 0 0 17.5-17.5v-25a17.52 17.52 0 0 0-17.5-17.5Zm2.5 42.5a2.503 2.503 0 0 1-2.5 2.5h-40a2.503 2.503 0 0 1-2.5-2.5v-25a2.503 2.503 0 0 1 2.5-2.5h40a2.503 2.503 0 0 1 2.5 2.5Zm-175.23 98.988c-.014-.136-.04-.27-.061-.404-.016-.104-.027-.21-.048-.313-.035-.177-.083-.348-.13-.52-.017-.062-.029-.124-.047-.185-.049-.159-.108-.313-.166-.468-.028-.073-.051-.149-.081-.221-.055-.13-.118-.256-.18-.383-.045-.095-.086-.191-.136-.284-.053-.1-.114-.193-.171-.29-.069-.115-.134-.23-.208-.343-.049-.072-.104-.14-.155-.21-.091-.128-.182-.256-.282-.378-.048-.058-.1-.11-.15-.167-.11-.126-.219-.252-.338-.372-.109-.109-.226-.209-.341-.31-.066-.059-.126-.121-.195-.178a7.515 7.515 0 0 0-.606-.45l-.007-.005c-.025-.016-.051-.029-.076-.045a7.461 7.461 0 0 0-.559-.333c-.069-.037-.14-.067-.209-.101-.15-.074-.3-.148-.455-.213-.101-.041-.204-.074-.306-.111-.127-.046-.252-.095-.381-.134-.13-.04-.262-.069-.393-.1-.105-.027-.209-.056-.316-.077-.163-.033-.327-.054-.49-.075-.08-.01-.157-.026-.237-.033a7.508 7.508 0 0 0-.641-.033c-.033 0-.064-.005-.097-.005l-.008.001a7.506 7.506 0 0 0-.753.038c-.106.01-.208.032-.312.047-.135.02-.271.035-.405.062-.167.033-.33.079-.493.123-.07.02-.142.033-.212.055-.153.046-.3.103-.45.159-.08.03-.16.055-.24.088-.125.052-.245.113-.366.17-.1.049-.202.093-.3.146-.093.05-.18.106-.27.16-.123.071-.246.14-.364.22-.064.043-.123.091-.186.136-.135.097-.271.193-.401.3-.05.041-.095.087-.144.129-.134.116-.268.232-.394.359-.087.086-.165.18-.247.27-.08.088-.164.172-.241.265a7.517 7.517 0 0 0-.45.606l-.004.006-23.76 35.64-23.76-35.64-.004-.006a7.51 7.51 0 0 0-.45-.607c-.05-.06-.106-.114-.158-.173-.108-.123-.215-.247-.332-.363-.113-.114-.234-.217-.354-.322-.062-.055-.12-.114-.185-.166-.117-.097-.24-.183-.363-.272-.076-.055-.148-.113-.226-.165-.104-.07-.213-.131-.32-.195-.105-.062-.207-.128-.314-.185-.082-.044-.167-.08-.251-.121-.138-.067-.274-.136-.416-.195-.058-.023-.118-.042-.176-.064-.17-.065-.34-.13-.515-.182l-.105-.027a7.37 7.37 0 0 0-.6-.15l-.017-.003a7.538 7.538 0 0 0-.833-.112c-.201-.017-.402-.03-.604-.03l-.017-.001c-.061 0-.121.007-.182.009-.183.004-.366.01-.548.027-.1.01-.196.028-.294.042-.145.02-.29.037-.434.066-.121.024-.24.057-.359.086-.117.03-.235.056-.35.09-.142.043-.278.095-.415.145-.091.034-.184.063-.274.1a7.424 7.424 0 0 0-.479.224c-.062.031-.126.057-.188.09-.193.104-.38.217-.563.336-.024.016-.05.028-.074.044l-.006.005a7.515 7.515 0 0 0-.607.45c-.068.056-.129.119-.195.177-.115.102-.232.202-.34.311-.12.12-.229.246-.339.372-.049.057-.102.11-.15.167-.1.122-.19.25-.282.378-.051.07-.106.138-.154.21-.075.112-.14.228-.208.343-.058.097-.118.19-.172.29-.05.093-.09.19-.136.284-.062.127-.125.252-.18.383-.03.072-.053.148-.08.221-.059.155-.118.309-.166.468-.019.061-.03.123-.048.185-.047.172-.094.343-.13.52-.02.103-.031.209-.048.313-.02.135-.047.267-.06.404a7.546 7.546 0 0 0-.038.749v88.01a7.5 7.5 0 0 0 15 0v-63.229l16.259 24.39a7.5 7.5 0 0 0 12.48 0l16.26-24.39v63.23a7.5 7.5 0 0 0 15 0v-88.011c-.001-.25-.013-.5-.038-.749Zm84.038 8.26a7.5 7.5 0 0 0 0-15h-60a7.5 7.5 0 0 0 0 15h22.5v73h-22.5a7.5 7.5 0 0 0 0 15h60a7.5 7.5 0 0 0 0-15h-22.5v-73ZM369.5 184.188h-60a7.5 7.5 0 0 0 0 15h60a7.5 7.5 0 0 0 0-15Zm-100 45h-40a17.52 17.52 0 0 0-17.5 17.5v25a17.52 17.52 0 0 0 17.5 17.5h40a17.52 17.52 0 0 0 17.5-17.5v-25a17.52 17.52 0 0 0-17.5-17.5Zm2.5 42.5a2.503 2.503 0 0 1-2.5 2.5h-40a2.503 2.503 0 0 1-2.5-2.5v-25a2.503 2.503 0 0 1 2.5-2.5h40a2.503 2.503 0 0 1 2.5 2.5Zm7.5-87.5h-60a7.5 7.5 0 0 0 0 15h60a7.5 7.5 0 0 0 0-15ZM89.308 378.936a7.5 7.5 0 0 0 0-15h-45a7.5 7.5 0 0 0-7.5 7.5v88a7.5 7.5 0 0 0 7.5 7.5h45a7.5 7.5 0 0 0 0-15h-37.5v-29h37.5a7.5 7.5 0 0 0 0-15h-37.5v-29ZM444.5 45h-210A22.525 22.525 0 0 0 212 67.5v64.188a22.525 22.525 0 0 0 22.5 22.5h210a22.525 22.525 0 0 0 22.5-22.5V67.5A22.525 22.525 0 0 0 444.5 45Zm7.5 86.688a7.508 7.508 0 0 1-7.5 7.5h-210a7.508 7.508 0 0 1-7.5-7.5V67.5a7.508 7.508 0 0 1 7.5-7.5h210a7.508 7.508 0 0 1 7.5 7.5Zm-22.5-39.594a7.5 7.5 0 1 0 7.5 7.5 7.5 7.5 0 0 0-7.5-7.5Zm-30 0a7.5 7.5 0 1 0 7.5 7.5 7.5 7.5 0 0 0-7.5-7.5Zm101.492-81.912A37.26 37.26 0 0 0 474.49-.78h-.07l-269.994.72A37.554 37.554 0 0 0 167 37.44v281.47H36.736a37.542 37.542 0 0 0-37.5 37.5v118.052a37.542 37.542 0 0 0 37.5 37.5H278.38a37.698 37.698 0 0 0 4.131-.233l192.062-.51A37.553 37.553 0 0 0 512 473.72V36.72a37.247 37.247 0 0 0-11.008-26.538ZM300.88 474.462a22.526 22.526 0 0 1-22.5 22.5H36.736a22.526 22.526 0 0 1-22.5-22.5V356.409a22.526 22.526 0 0 1 22.5-22.5H174.48l.019.001h103.88a22.526 22.526 0 0 1 22.5 22.5ZM497 473.72a22.531 22.531 0 0 1-22.46 22.5l-165.96.44a37.295 37.295 0 0 0 7.3-22.198v-7.843a17.5 17.5 0 0 0 3.62.381h40a17.52 17.52 0 0 0 17.5-17.5v-25a17.52 17.52 0 0 0-17.5-17.5h-40a17.5 17.5 0 0 0-3.62.381v-28.574a17.5 17.5 0 0 0 3.62.381h40a17.52 17.52 0 0 0 17.5-17.5v-25a17.52 17.52 0 0 0-17.5-17.5h-40a17.504 17.504 0 0 0-15.655 9.726 37.352 37.352 0 0 0-25.465-10.005H182V37.44a22.533 22.533 0 0 1 22.46-22.5l269.994-.719h.042A22.504 22.504 0 0 1 497 36.72ZM317 449.5v-25a2.503 2.503 0 0 1 2.5-2.5h40a2.503 2.503 0 0 1 2.5 2.5v25a2.503 2.503 0 0 1-2.5 2.5h-40a2.503 2.503 0 0 1-2.5-2.5Zm0-87.812v-25a2.503 2.503 0 0 1 2.5-2.5h40a2.503 2.503 0 0 1 2.5 2.5v25a2.503 2.503 0 0 1-2.5 2.5h-40a2.503 2.503 0 0 1-2.5-2.5Zm142.5-177.5h-60a7.5 7.5 0 0 0 0 15h60a7.5 7.5 0 0 0 0-15Zm-90-92.094a7.5 7.5 0 1 0 7.5 7.5 7.5 7.5 0 0 0-7.5-7.5Zm80 137.094h-40a17.52 17.52 0 0 0-17.5 17.5v25a17.52 17.52 0 0 0 17.5 17.5h40a17.52 17.52 0 0 0 17.5-17.5v-25a17.52 17.52 0 0 0-17.5-17.5Zm2.5 42.5a2.503 2.503 0 0 1-2.5 2.5h-40a2.503 2.503 0 0 1-2.5-2.5v-25a2.503 2.503 0 0 1 2.5-2.5h40a2.503 2.503 0 0 1 2.5 2.5Zm-2.5 47.5h-40a17.52 17.52 0 0 0-17.5 17.5V449.5a17.52 17.52 0 0 0 17.5 17.5h40a17.52 17.52 0 0 0 17.5-17.5V336.688a17.52 17.52 0 0 0-17.5-17.5ZM452 449.5a2.503 2.503 0 0 1-2.5 2.5h-40a2.503 2.503 0 0 1-2.5-2.5V336.688a2.503 2.503 0 0 1 2.5-2.5h40a2.503 2.503 0 0 1 2.5 2.5ZM339.5 92.094a7.5 7.5 0 1 0 7.5 7.5 7.5 7.5 0 0 0-7.5-7.5Z"></path></svg>